<?xml version="1.0" ?><!-- Uploaded to: SVG Repo, www.svgrepo.com, Generator: SVG Repo Mixer Tools -->
<svg width="800px" height="800px" viewBox="0 0 64 64" id="icons" xmlns="http://www.w3.org/2000/svg"><defs><style>.cls-1{fill:#231f20;}</style></defs><title/><path class="cls-1" d="M58,16H51.4A8,8,0,0,0,44.48,4H43.21a8,8,0,0,0-6.66,3.56L32,14.39,27.45,7.56A8,8,0,0,0,20.79,4H19.52A8,8,0,0,0,12.6,16H6a2,2,0,0,0-2,2V29a2,2,0,0,0,2,2H8V56a2,2,0,0,0,2,2H54a2,2,0,0,0,2-2V31h2a2,2,0,0,0,2-2V18A2,2,0,0,0,58,16ZM39.88,9.78A4,4,0,0,1,43.21,8h1.27a4,4,0,0,1,4,3.67,3.91,3.91,0,0,1-1,3A4,4,0,0,1,44.48,16H35.74Zm-23.3,4.93a3.91,3.91,0,0,1-1-3,4,4,0,0,1,4-3.67h1.27a4,4,0,0,1,3.33,1.78L28.26,16H19.52A4,4,0,0,1,16.58,14.71ZM8,20H30v7H8Zm4,34V31H30V54Zm40,0H34V31H52Zm4-27H34V20H56Z"/></svg>